<?xml version="1.0" standalone="no"?>
<!DOCTYPE svg PUBLIC "-//W3C//DTD SVG 20010904//EN"
 "http://www.w3.org/TR/2001/REC-SVG-20010904/DTD/svg10.dtd">
<svg version="1.0" xmlns="http://www.w3.org/2000/svg"
 width="1024.000000pt" height="1024.000000pt" viewBox="0 0 1024.000000 1024.000000"
 preserveAspectRatio="xMidYMid meet">
<metadata>
Created by potrace 1.11, written by Peter Selinger 2001-2013
</metadata>
<g transform="translate(0.000000,1024.000000) scale(0.100000,-0.100000)"
fill="#000000" stroke="none">
<path d="M3660 9145 l0 -285 -570 0 -570 0 0 -290 0 -290 -290 0 -290 0 0
-290 0 -290 -290 0 -290 0 0 -570 0 -570 -285 0 -285 0 0 -1445 0 -1445 285 0
285 0 0 -570 0 -570 288 -2 287 -3 3 -287 2 -288 288 -2 287 -3 3 -287 2 -288
570 0 570 0 0 -285 0 -285 1445 0 1445 0 0 285 0 285 570 0 570 0 2 288 3 287
287 3 288 2 2 288 3 287 288 3 287 2 0 570 0 570 285 0 285 0 0 1445 0 1445
-285 0 -285 0 0 570 0 570 -287 2 -288 3 -3 287 -2 288 -288 2 -287 3 -3 288
-2 287 -570 0 -570 0 0 285 0 285 -1445 0 -1445 0 0 -285z m2880 -575 l0 -290
575 0 575 0 2 -287 3 -288 288 -3 287 -2 0 -575 0 -575 290 0 290 0 0 -1435 0
-1435 -290 0 -290 0 0 -575 0 -575 -287 -2 -288 -3 -3 -287 -2 -288 -575 0
-575 0 0 -290 0 -290 -1435 0 -1435 0 0 290 0 290 -575 0 -575 0 -2 288 -3
287 -287 3 -288 2 0 575 0 575 -290 0 -290 0 2 1438 3 1437 288 3 287 2 0 570
0 570 288 2 287 3 3 288 2 287 570 0 570 0 0 283 c0 156 3 287 7 290 3 4 651
7 1440 7 l1433 0 0 -290z"/>
<path d="M3670 7705 l0 -575 -287 -2 -288 -3 -3 -287 -2 -288 -575 0 -575 0 0
-285 0 -285 575 0 575 0 2 -287 3 -288 285 0 285 0 3 288 2 287 285 0 285 0 0
-865 0 -865 865 0 865 0 0 865 0 865 285 0 285 0 0 -290 0 -290 288 2 287 3 3
288 2 287 575 0 575 0 0 285 0 285 -575 0 -575 0 0 290 0 290 -290 0 -290 0 0
575 0 575 -285 0 -285 0 0 -872 c0 -480 0 -998 0 -1150 l1 -278 -866 0 -866 0
1 278 c0 152 0 670 0 1150 l0 872 -285 0 -285 0 0 -575z"/>
<path d="M1947 4823 c-4 -3 -7 -262 -7 -575 l0 -568 288 -2 287 -3 2 -285 2
-285 286 -3 285 -2 0 -285 0 -285 575 0 575 0 0 -290 0 -290 865 0 865 0 0
290 0 290 575 0 575 0 0 285 0 285 284 0 283 0 10 578 c7 461 10 519 11 290
l2 -288 280 0 280 0 -2 573 -3 572 -572 3 -573 2 0 -580 0 -580 -285 0 -285 0
0 -285 0 -285 -295 0 c-162 0 -680 0 -1150 0 -470 0 -988 0 -1150 0 l-295 0 0
285 0 285 -285 0 -285 0 -2 578 -3 577 -566 3 c-311 1 -569 -1 -572 -5z m560
-995 c-1 -79 -3 -15 -3 142 0 157 2 221 3 143 2 -79 2 -207 0 -285z m876 -711
l272 -2 -277 -3 -278 -2 2 278 3 277 2 -272 3 -273 273 -3z m3727 268 l0 -275
-277 2 -278 3 273 2 272 3 0 270 c0 149 2 270 5 270 3 0 5 -124 5 -275z
m-1572 -852 c-234 -2 -621 -2 -860 0 -238 1 -46 2 427 2 473 0 668 -1 433 -2z"/>
</g>
</svg>
